<mxfile host="app.diagrams.net" modified="2022-05-12T11:20:24.424Z" agent="5.0 (X11; Linux x86_64) AppleWebKit/537.36 (KHTML, like Gecko) Chrome/101.0.4951.54 Safari/537.36" etag="Y9qMyV34_kQ_Bn-60xpu" version="18.0.3" type="github">
  <diagram id="C5RBs43oDa-KdzZeNtuy" name="Page-1">
    <mxGraphModel dx="800" dy="424" grid="1" gridSize="10" guides="1" tooltips="1" connect="1" arrows="1" fold="1" page="1" pageScale="1" pageWidth="827" pageHeight="1169" math="0" shadow="0">
      <root>
        <mxCell id="WIyWlLk6GJQsqaUBKTNV-0" />
        <mxCell id="WIyWlLk6GJQsqaUBKTNV-1" parent="WIyWlLk6GJQsqaUBKTNV-0" />
        <mxCell id="WIyWlLk6GJQsqaUBKTNV-2" value="" style="rounded=0;html=1;jettySize=auto;orthogonalLoop=1;fontSize=11;endArrow=block;endFill=0;endSize=8;strokeWidth=1;shadow=0;labelBackgroundColor=none;edgeStyle=orthogonalEdgeStyle;" parent="WIyWlLk6GJQsqaUBKTNV-1" source="WIyWlLk6GJQsqaUBKTNV-3" edge="1">
          <mxGeometry relative="1" as="geometry">
            <mxPoint x="220" y="160" as="targetPoint" />
            <Array as="points">
              <mxPoint x="220" y="130" />
              <mxPoint x="220" y="130" />
            </Array>
          </mxGeometry>
        </mxCell>
        <mxCell id="WIyWlLk6GJQsqaUBKTNV-3" value="home page" style="rounded=1;whiteSpace=wrap;html=1;fontSize=12;glass=0;strokeWidth=1;shadow=0;" parent="WIyWlLk6GJQsqaUBKTNV-1" vertex="1">
          <mxGeometry x="160" y="80" width="120" height="40" as="geometry" />
        </mxCell>
        <mxCell id="mW89OCtYuqfJ4f_Lh5zg-3" value="" style="endArrow=none;html=1;rounded=0;" edge="1" parent="WIyWlLk6GJQsqaUBKTNV-1">
          <mxGeometry width="50" height="50" relative="1" as="geometry">
            <mxPoint x="190" y="160" as="sourcePoint" />
            <mxPoint x="240" y="160" as="targetPoint" />
            <Array as="points">
              <mxPoint x="220" y="160" />
            </Array>
          </mxGeometry>
        </mxCell>
        <mxCell id="mW89OCtYuqfJ4f_Lh5zg-5" value="" style="endArrow=classic;html=1;rounded=0;" edge="1" parent="WIyWlLk6GJQsqaUBKTNV-1">
          <mxGeometry width="50" height="50" relative="1" as="geometry">
            <mxPoint x="190" y="160" as="sourcePoint" />
            <mxPoint x="190" y="220" as="targetPoint" />
            <Array as="points">
              <mxPoint x="190" y="190" />
              <mxPoint x="190" y="200" />
            </Array>
          </mxGeometry>
        </mxCell>
        <mxCell id="mW89OCtYuqfJ4f_Lh5zg-6" value="" style="endArrow=classic;html=1;rounded=0;" edge="1" parent="WIyWlLk6GJQsqaUBKTNV-1">
          <mxGeometry width="50" height="50" relative="1" as="geometry">
            <mxPoint x="240" y="160" as="sourcePoint" />
            <mxPoint x="240" y="220" as="targetPoint" />
            <Array as="points">
              <mxPoint x="240" y="190" />
              <mxPoint x="240" y="200" />
            </Array>
          </mxGeometry>
        </mxCell>
        <mxCell id="mW89OCtYuqfJ4f_Lh5zg-7" value="Prev Orders(History)" style="rounded=1;whiteSpace=wrap;html=1;" vertex="1" parent="WIyWlLk6GJQsqaUBKTNV-1">
          <mxGeometry x="100" y="220" width="120" height="40" as="geometry" />
        </mxCell>
        <mxCell id="mW89OCtYuqfJ4f_Lh5zg-8" value="Take Order" style="rounded=1;whiteSpace=wrap;html=1;" vertex="1" parent="WIyWlLk6GJQsqaUBKTNV-1">
          <mxGeometry x="230" y="220" width="120" height="40" as="geometry" />
        </mxCell>
        <mxCell id="mW89OCtYuqfJ4f_Lh5zg-9" value="" style="curved=1;endArrow=classic;html=1;rounded=0;exitX=0.5;exitY=1;exitDx=0;exitDy=0;entryX=0.5;entryY=0;entryDx=0;entryDy=0;" edge="1" parent="WIyWlLk6GJQsqaUBKTNV-1" source="mW89OCtYuqfJ4f_Lh5zg-8" target="mW89OCtYuqfJ4f_Lh5zg-17">
          <mxGeometry width="50" height="50" relative="1" as="geometry">
            <mxPoint x="324" y="350" as="sourcePoint" />
            <mxPoint x="290" y="320" as="targetPoint" />
            <Array as="points">
              <mxPoint x="290" y="300" />
            </Array>
          </mxGeometry>
        </mxCell>
        <mxCell id="mW89OCtYuqfJ4f_Lh5zg-11" value="Customer" style="whiteSpace=wrap;html=1;" vertex="1" parent="WIyWlLk6GJQsqaUBKTNV-1">
          <mxGeometry x="340" y="110" width="120" height="60" as="geometry" />
        </mxCell>
        <mxCell id="mW89OCtYuqfJ4f_Lh5zg-15" value="" style="endArrow=classic;html=1;rounded=0;" edge="1" parent="WIyWlLk6GJQsqaUBKTNV-1">
          <mxGeometry width="50" height="50" relative="1" as="geometry">
            <mxPoint x="390" y="170" as="sourcePoint" />
            <mxPoint x="340" y="220" as="targetPoint" />
          </mxGeometry>
        </mxCell>
        <mxCell id="mW89OCtYuqfJ4f_Lh5zg-19" value="" style="edgeStyle=orthogonalEdgeStyle;rounded=0;orthogonalLoop=1;jettySize=auto;html=1;" edge="1" parent="WIyWlLk6GJQsqaUBKTNV-1" source="mW89OCtYuqfJ4f_Lh5zg-17" target="mW89OCtYuqfJ4f_Lh5zg-18">
          <mxGeometry relative="1" as="geometry" />
        </mxCell>
        <mxCell id="mW89OCtYuqfJ4f_Lh5zg-17" value="Take Details Of User" style="rounded=1;whiteSpace=wrap;html=1;" vertex="1" parent="WIyWlLk6GJQsqaUBKTNV-1">
          <mxGeometry x="230" y="360" width="120" height="40" as="geometry" />
        </mxCell>
        <mxCell id="mW89OCtYuqfJ4f_Lh5zg-37" value="" style="edgeStyle=orthogonalEdgeStyle;rounded=0;orthogonalLoop=1;jettySize=auto;html=1;" edge="1" parent="WIyWlLk6GJQsqaUBKTNV-1" source="mW89OCtYuqfJ4f_Lh5zg-18" target="mW89OCtYuqfJ4f_Lh5zg-36">
          <mxGeometry relative="1" as="geometry">
            <mxPoint x="250" y="680" as="targetPoint" />
            <Array as="points">
              <mxPoint x="250" y="600" />
              <mxPoint x="250" y="600" />
            </Array>
          </mxGeometry>
        </mxCell>
        <mxCell id="mW89OCtYuqfJ4f_Lh5zg-18" value="Menu Card&amp;nbsp;" style="rounded=1;whiteSpace=wrap;html=1;" vertex="1" parent="WIyWlLk6GJQsqaUBKTNV-1">
          <mxGeometry x="230" y="540" width="120" height="40" as="geometry" />
        </mxCell>
        <mxCell id="mW89OCtYuqfJ4f_Lh5zg-20" value="Orderd" style="text;html=1;strokeColor=none;fillColor=none;align=center;verticalAlign=middle;whiteSpace=wrap;rounded=0;rotation=-45;" vertex="1" parent="WIyWlLk6GJQsqaUBKTNV-1">
          <mxGeometry x="350" y="180" width="60" height="30" as="geometry" />
        </mxCell>
        <mxCell id="mW89OCtYuqfJ4f_Lh5zg-21" value="Filling the form" style="text;html=1;strokeColor=none;fillColor=none;align=center;verticalAlign=middle;whiteSpace=wrap;rounded=0;rotation=-90;" vertex="1" parent="WIyWlLk6GJQsqaUBKTNV-1">
          <mxGeometry x="260" y="290" width="90" height="30" as="geometry" />
        </mxCell>
        <mxCell id="mW89OCtYuqfJ4f_Lh5zg-22" value="Menu Card Open" style="text;html=1;strokeColor=none;fillColor=none;align=center;verticalAlign=middle;whiteSpace=wrap;rounded=0;rotation=-90;" vertex="1" parent="WIyWlLk6GJQsqaUBKTNV-1">
          <mxGeometry x="245" y="450" width="120" height="30" as="geometry" />
        </mxCell>
        <mxCell id="mW89OCtYuqfJ4f_Lh5zg-24" value="" style="endArrow=classic;startArrow=classic;html=1;rounded=0;" edge="1" parent="WIyWlLk6GJQsqaUBKTNV-1">
          <mxGeometry width="50" height="50" relative="1" as="geometry">
            <mxPoint x="350" y="380" as="sourcePoint" />
            <mxPoint x="440" y="380" as="targetPoint" />
          </mxGeometry>
        </mxCell>
        <mxCell id="mW89OCtYuqfJ4f_Lh5zg-25" value="" style="ellipse;whiteSpace=wrap;html=1;" vertex="1" parent="WIyWlLk6GJQsqaUBKTNV-1">
          <mxGeometry x="440" y="360" width="80" height="40" as="geometry" />
        </mxCell>
        <mxCell id="mW89OCtYuqfJ4f_Lh5zg-26" value="Validations" style="text;html=1;strokeColor=none;fillColor=none;align=center;verticalAlign=middle;whiteSpace=wrap;rounded=0;" vertex="1" parent="WIyWlLk6GJQsqaUBKTNV-1">
          <mxGeometry x="450" y="365" width="60" height="30" as="geometry" />
        </mxCell>
        <mxCell id="mW89OCtYuqfJ4f_Lh5zg-29" value="" style="endArrow=classic;html=1;rounded=0;entryX=0.133;entryY=-0.067;entryDx=0;entryDy=0;entryPerimeter=0;" edge="1" parent="WIyWlLk6GJQsqaUBKTNV-1" target="mW89OCtYuqfJ4f_Lh5zg-38">
          <mxGeometry width="50" height="50" relative="1" as="geometry">
            <mxPoint x="330" y="580" as="sourcePoint" />
            <mxPoint x="560" y="670" as="targetPoint" />
            <Array as="points">
              <mxPoint x="330" y="640" />
              <mxPoint x="600" y="640" />
            </Array>
          </mxGeometry>
        </mxCell>
        <mxCell id="mW89OCtYuqfJ4f_Lh5zg-31" value="Order individual item" style="text;html=1;strokeColor=none;fillColor=none;align=center;verticalAlign=middle;whiteSpace=wrap;rounded=0;" vertex="1" parent="WIyWlLk6GJQsqaUBKTNV-1">
          <mxGeometry x="120" y="600" width="130" height="30" as="geometry" />
        </mxCell>
        <mxCell id="mW89OCtYuqfJ4f_Lh5zg-32" value="Order Combos item" style="text;html=1;strokeColor=none;fillColor=none;align=center;verticalAlign=middle;whiteSpace=wrap;rounded=0;" vertex="1" parent="WIyWlLk6GJQsqaUBKTNV-1">
          <mxGeometry x="330" y="600" width="130" height="30" as="geometry" />
        </mxCell>
        <mxCell id="mW89OCtYuqfJ4f_Lh5zg-34" value="Text" style="text;html=1;strokeColor=none;fillColor=none;align=center;verticalAlign=middle;whiteSpace=wrap;rounded=0;" vertex="1" parent="WIyWlLk6GJQsqaUBKTNV-1">
          <mxGeometry x="360" y="530" width="60" height="30" as="geometry" />
        </mxCell>
        <mxCell id="mW89OCtYuqfJ4f_Lh5zg-39" value="" style="edgeStyle=orthogonalEdgeStyle;rounded=0;orthogonalLoop=1;jettySize=auto;html=1;" edge="1" parent="WIyWlLk6GJQsqaUBKTNV-1" source="mW89OCtYuqfJ4f_Lh5zg-36" target="mW89OCtYuqfJ4f_Lh5zg-38">
          <mxGeometry relative="1" as="geometry" />
        </mxCell>
        <mxCell id="mW89OCtYuqfJ4f_Lh5zg-41" value="" style="edgeStyle=orthogonalEdgeStyle;rounded=0;orthogonalLoop=1;jettySize=auto;html=1;entryX=0.5;entryY=1;entryDx=0;entryDy=0;" edge="1" parent="WIyWlLk6GJQsqaUBKTNV-1" source="mW89OCtYuqfJ4f_Lh5zg-36" target="mW89OCtYuqfJ4f_Lh5zg-38">
          <mxGeometry relative="1" as="geometry">
            <mxPoint x="440" y="840" as="targetPoint" />
            <Array as="points">
              <mxPoint x="255" y="840" />
              <mxPoint x="600" y="840" />
            </Array>
          </mxGeometry>
        </mxCell>
        <mxCell id="mW89OCtYuqfJ4f_Lh5zg-36" value="Is that any Combo Available&lt;br&gt;of selected item&amp;nbsp;" style="rhombus;whiteSpace=wrap;html=1;rounded=1;" vertex="1" parent="WIyWlLk6GJQsqaUBKTNV-1">
          <mxGeometry x="170" y="690" width="170" height="140" as="geometry" />
        </mxCell>
        <mxCell id="mW89OCtYuqfJ4f_Lh5zg-49" value="" style="edgeStyle=orthogonalEdgeStyle;rounded=0;orthogonalLoop=1;jettySize=auto;html=1;" edge="1" parent="WIyWlLk6GJQsqaUBKTNV-1" source="mW89OCtYuqfJ4f_Lh5zg-38" target="mW89OCtYuqfJ4f_Lh5zg-48">
          <mxGeometry relative="1" as="geometry" />
        </mxCell>
        <mxCell id="mW89OCtYuqfJ4f_Lh5zg-38" value="Card" style="whiteSpace=wrap;html=1;rounded=1;" vertex="1" parent="WIyWlLk6GJQsqaUBKTNV-1">
          <mxGeometry x="540" y="700" width="120" height="60" as="geometry" />
        </mxCell>
        <mxCell id="mW89OCtYuqfJ4f_Lh5zg-42" value="No&lt;span style=&quot;color: rgba(0, 0, 0, 0); font-family: monospace; font-size: 0px; text-align: start;&quot;&gt;%3CmxGraphModel%3E%3Croot%3E%3CmxCell%20id%3D%220%22%2F%3E%3CmxCell%20id%3D%221%22%20parent%3D%220%22%2F%3E%3CmxCell%20id%3D%222%22%20value%3D%22Order%20individual%20item%22%20style%3D%22text%3Bhtml%3D1%3BstrokeColor%3Dnone%3BfillColor%3Dnone%3Balign%3Dcenter%3BverticalAlign%3Dmiddle%3BwhiteSpace%3Dwrap%3Brounded%3D0%3B%22%20vertex%3D%221%22%20parent%3D%221%22%3E%3CmxGeometry%20x%3D%22120%22%20y%3D%22600%22%20width%3D%22130%22%20height%3D%2230%22%20as%3D%22geometry%22%2F%3E%3C%2FmxCell%3E%3C%2Froot%3E%3C%2FmxGraphModel%3E&lt;/span&gt;" style="text;html=1;strokeColor=none;fillColor=none;align=center;verticalAlign=middle;whiteSpace=wrap;rounded=0;" vertex="1" parent="WIyWlLk6GJQsqaUBKTNV-1">
          <mxGeometry x="300" y="810" width="60" height="30" as="geometry" />
        </mxCell>
        <mxCell id="mW89OCtYuqfJ4f_Lh5zg-43" value="Yes" style="text;html=1;strokeColor=none;fillColor=none;align=center;verticalAlign=middle;whiteSpace=wrap;rounded=0;" vertex="1" parent="WIyWlLk6GJQsqaUBKTNV-1">
          <mxGeometry x="340" y="730" width="60" height="30" as="geometry" />
        </mxCell>
        <mxCell id="mW89OCtYuqfJ4f_Lh5zg-44" value="add that order into card" style="text;html=1;strokeColor=none;fillColor=none;align=center;verticalAlign=middle;whiteSpace=wrap;rounded=0;" vertex="1" parent="WIyWlLk6GJQsqaUBKTNV-1">
          <mxGeometry x="430" y="700" width="100" height="30" as="geometry" />
        </mxCell>
        <mxCell id="mW89OCtYuqfJ4f_Lh5zg-46" value="&lt;span style=&quot;&quot;&gt;add order into card&lt;/span&gt;" style="text;html=1;align=center;verticalAlign=middle;resizable=0;points=[];autosize=1;strokeColor=none;fillColor=none;" vertex="1" parent="WIyWlLk6GJQsqaUBKTNV-1">
          <mxGeometry x="480" y="650" width="120" height="20" as="geometry" />
        </mxCell>
        <mxCell id="mW89OCtYuqfJ4f_Lh5zg-47" value="add order into card" style="text;html=1;strokeColor=none;fillColor=none;align=center;verticalAlign=middle;whiteSpace=wrap;rounded=0;" vertex="1" parent="WIyWlLk6GJQsqaUBKTNV-1">
          <mxGeometry x="480" y="810" width="100" height="30" as="geometry" />
        </mxCell>
        <mxCell id="mW89OCtYuqfJ4f_Lh5zg-48" value="Bill Generate" style="whiteSpace=wrap;html=1;rounded=1;" vertex="1" parent="WIyWlLk6GJQsqaUBKTNV-1">
          <mxGeometry x="680" y="480" width="120" height="60" as="geometry" />
        </mxCell>
      </root>
    </mxGraphModel>
  </diagram>
</mxfile>
